<svg xmlns="http://www.w3.org/2000/svg" xmlns:xlink="http://www.w3.org/1999/xlink" width="500" zoomAndPan="magnify" viewBox="0 0 375 374.999991" height="500" preserveAspectRatio="xMidYMid meet" version="1.0"><defs><g/><clipPath id="80d29ca63a"><path d="M 170 104.351562 L 240 104.351562 L 240 209 L 170 209 Z M 170 104.351562 " clip-rule="nonzero"/></clipPath><clipPath id="94e97ce105"><path d="M 135 105 L 205 105 L 205 210.101562 L 135 210.101562 Z M 135 105 " clip-rule="nonzero"/></clipPath></defs><g fill="#990000" fill-opacity="1"><g transform="translate(76.973025, 260.679314)"><g><path d="M 3.882812 0 L 10.0625 0 C 17.386719 0 23.300781 -5.914062 23.300781 -13.238281 C 23.300781 -20.5625 17.386719 -26.476562 10.0625 -26.476562 L 3.882812 -26.476562 Z M 4.589844 -0.707031 L 4.589844 -25.769531 L 10.0625 -25.769531 C 17.035156 -25.769531 22.59375 -20.210938 22.59375 -13.238281 C 22.59375 -6.265625 17.035156 -0.707031 10.0625 -0.707031 Z M 4.589844 -0.707031 "/></g></g></g><g fill="#990000" fill-opacity="1"><g transform="translate(111.301001, 260.679314)"><g><path d="M 4.105469 0 L 4.808594 0 L 4.808594 -26.476562 L 4.105469 -26.476562 Z M 4.105469 0 "/></g></g></g><g fill="#990000" fill-opacity="1"><g transform="translate(128.289394, 260.679314)"><g><path d="M 16.503906 -13.460938 L 16.503906 -12.753906 L 29.390625 -12.753906 C 29.125 -5.824219 23.476562 -0.351562 16.503906 -0.351562 C 9.398438 -0.351562 3.617188 -6.089844 3.617188 -13.238281 C 3.617188 -20.386719 9.398438 -26.125 16.503906 -26.125 C 21.269531 -26.125 25.417969 -23.5625 27.625 -19.769531 L 28.242188 -20.121094 C 25.902344 -24.136719 21.535156 -26.828125 16.503906 -26.828125 C 9.003906 -26.828125 2.914062 -20.738281 2.914062 -13.238281 C 2.914062 -5.738281 9.003906 0.351562 16.503906 0.351562 C 24.050781 0.351562 30.09375 -5.738281 30.09375 -13.238281 L 30.09375 -13.460938 Z M 16.503906 -13.460938 "/></g></g></g><g fill="#990000" fill-opacity="1"><g transform="translate(169.456141, 260.679314)"><g><path d="M 4.105469 0 L 4.808594 0 L 4.808594 -26.476562 L 4.105469 -26.476562 Z M 4.105469 0 "/></g></g></g><g fill="#990000" fill-opacity="1"><g transform="translate(186.444534, 260.679314)"><g><path d="M 16.503906 0.351562 C 21.535156 0.351562 25.902344 -2.339844 28.242188 -6.355469 L 27.625 -6.707031 C 25.417969 -2.914062 21.269531 -0.351562 16.503906 -0.351562 C 9.398438 -0.351562 3.617188 -6.089844 3.617188 -13.238281 C 3.617188 -20.386719 9.398438 -26.125 16.503906 -26.125 C 21.269531 -26.125 25.417969 -23.5625 27.625 -19.769531 L 28.242188 -20.121094 C 25.902344 -24.136719 21.535156 -26.828125 16.503906 -26.828125 C 9.003906 -26.828125 2.914062 -20.738281 2.914062 -13.238281 C 2.914062 -5.738281 9.003906 0.351562 16.503906 0.351562 Z M 16.503906 0.351562 "/></g></g></g><g fill="#990000" fill-opacity="1"><g transform="translate(224.9199, 260.679314)"><g><path d="M 16.503906 0.351562 C 24.050781 0.351562 30.09375 -5.738281 30.09375 -13.238281 C 30.09375 -20.738281 24.050781 -26.828125 16.503906 -26.828125 C 9.003906 -26.828125 2.914062 -20.738281 2.914062 -13.238281 C 2.914062 -5.738281 9.003906 0.351562 16.503906 0.351562 Z M 16.503906 -0.351562 C 9.398438 -0.351562 3.617188 -6.089844 3.617188 -13.238281 C 3.617188 -20.386719 9.398438 -26.125 16.503906 -26.125 C 23.652344 -26.125 29.390625 -20.386719 29.390625 -13.238281 C 29.390625 -6.089844 23.652344 -0.351562 16.503906 -0.351562 Z M 16.503906 -0.351562 "/></g></g></g><g fill="#990000" fill-opacity="1"><g transform="translate(266.086653, 260.679314)"><g><path d="M 27.449219 -26.476562 L 15.972656 -0.882812 L 4.5 -26.476562 L 3.882812 -26.476562 L 3.882812 0 L 4.589844 0 L 4.589844 -24.84375 L 15.664062 0 L 16.238281 0 L 27.359375 -24.84375 L 27.359375 0 L 28.066406 0 L 28.066406 -26.476562 Z M 27.449219 -26.476562 "/></g></g></g><g clip-path="url(#80d29ca63a)"><path fill="#990000" d="M 220.929688 123.796875 C 213.910156 121.382812 206.316406 122.417969 200.214844 126.558594 L 203.09375 104.234375 L 186.867188 130.703125 L 170.644531 157.167969 L 214.023438 145.546875 L 198.261719 142.441406 C 227.144531 121.496094 249.351562 182.140625 192.621094 208.605469 C 218.742188 205.957031 239.109375 183.980469 239.109375 157.167969 C 239.109375 150.609375 237.960938 144.394531 235.773438 138.757812 C 235.3125 137.375 234.738281 136.109375 234.046875 134.84375 C 231.285156 129.667969 226.683594 125.753906 221.042969 123.796875 Z M 188.480469 208.835938 C 194.808594 205.039062 200.101562 201.242188 204.703125 197.328125 C 219.203125 184.785156 224.613281 171.550781 220.8125 157.859375 C 222.425781 175.925781 209.769531 192.839844 182.839844 208.71875 C 184.335938 208.835938 185.832031 208.949219 187.328125 208.949219 C 187.675781 208.949219 188.019531 208.949219 188.480469 208.949219 Z M 188.480469 208.835938 " fill-opacity="1" fill-rule="evenodd"/></g><g clip-path="url(#94e97ce105)"><path fill="#990000" d="M 153.726562 190.539062 C 160.746094 192.957031 168.34375 191.921875 174.441406 187.777344 L 171.5625 210.101562 L 187.789062 183.636719 L 204.015625 157.167969 L 160.632812 168.789062 L 176.398438 171.898438 C 147.515625 192.839844 125.304688 132.199219 182.035156 105.730469 C 155.914062 108.378906 135.546875 130.355469 135.546875 157.167969 C 135.546875 163.726562 136.699219 169.941406 138.882812 175.578125 C 139.34375 176.960938 139.917969 178.226562 140.609375 179.492188 C 143.371094 184.671875 147.976562 188.582031 153.613281 190.539062 Z M 186.179688 105.5 C 159.710938 121.496094 148.894531 138.527344 153.84375 156.476562 C 152.230469 138.410156 164.890625 121.496094 191.816406 105.617188 C 190.320312 105.5 188.824219 105.386719 187.328125 105.386719 C 186.984375 105.386719 186.636719 105.386719 186.179688 105.386719 Z M 186.179688 105.5 " fill-opacity="1" fill-rule="evenodd"/></g></svg>